<svg width="54" height="60" viewBox="0 0 54 60" fill="none" xmlns="http://www.w3.org/2000/svg">
<path d="M45.6663 0.666664H40.333V6H13.6663V0.666664H8.33301V6H5.66634C4.25185 6 2.8953 6.5619 1.8951 7.56209C0.894911 8.56229 0.333008 9.91884 0.333008 11.3333V54C0.333008 55.4145 0.894911 56.771 1.8951 57.7712C2.8953 58.7714 4.25185 59.3333 5.66634 59.3333H48.333C49.7475 59.3333 51.104 58.7714 52.1042 57.7712C53.1044 56.771 53.6663 55.4145 53.6663 54V11.3333C53.6663 9.91884 53.1044 8.56229 52.1042 7.56209C51.104 6.5619 49.7475 6 48.333 6H45.6663V0.666664ZM5.66634 54V11.3333H48.333V54H5.66634Z" fill="white"/>
</svg>
