<svg width="38" height="38" viewBox="0 0 38 38" fill="none" xmlns="http://www.w3.org/2000/svg">
<path d="M14.0915 8.08795L21.5769 15.5548C23.1966 17.173 25.2982 18.2212 27.5653 18.5416L18.5828 27.5017C18.2668 25.2362 17.2148 23.1373 15.5886 21.5283L8.10314 14.0614L14.0915 8.08795ZM15.5885 0.621139L0.617653 15.5548C0.221524 15.9518 -0.000651813 16.4898 1.43646e-06 17.0506C0.000654685 17.6114 0.224084 18.149 0.621136 18.5451C1.01819 18.9411 1.55634 19.1633 2.1172 19.1626C2.67807 19.162 3.2157 18.9386 3.61183 18.5416L5.10902 17.0481L12.5945 24.5149C13.1852 25.102 13.6539 25.8 13.9738 26.5689C14.2937 27.3378 14.4583 28.1623 14.4583 28.995C14.4583 29.8278 14.2937 30.6523 13.9738 31.4211C13.6539 32.19 13.1852 32.8881 12.5945 33.4751L15.5886 36.4619L24.5263 27.5466L35.0058 38H38V35.0132L27.5205 24.5597L36.5479 15.5548L33.5537 12.5681C32.3623 13.7585 30.7469 14.4273 29.0625 14.4273C27.3781 14.4273 25.7626 13.7585 24.5712 12.5681L17.0857 5.10124L18.5828 3.60787C18.9789 3.21087 19.2011 2.67279 19.2004 2.112C19.1998 1.55121 18.9763 1.01365 18.5793 0.617572C18.1822 0.221495 17.6441 -0.000651727 17.0832 1.43627e-06C16.5223 0.0006546 15.9847 0.224054 15.5886 0.621055L15.5885 0.621139Z" fill="white"/>
</svg>
