<svg width="59" height="50" viewBox="0 0 59 50" fill="none" xmlns="http://www.w3.org/2000/svg">
<path d="M34.8267 21.1733L29.3333 18.6667L34.8267 16.16L37.3333 10.6667L39.84 16.16L45.3333 18.6667L39.84 21.1733L37.3333 26.6667L34.8267 21.1733ZM8 32L10.5067 26.5067L16 24L10.5067 21.4933L8 16L5.49333 21.4933L0 24L5.49333 26.5067L8 32ZM20 18.6667L22.9067 12.24L29.3333 9.33333L22.9067 6.42667L20 0L17.0933 6.42667L10.6667 9.33333L17.0933 12.24L20 18.6667ZM9.33333 49.3333L25.3333 33.3067L36 43.9733L58.6667 18.48L54.9067 14.72L36 35.9733L25.3333 25.3067L5.33333 45.3333L9.33333 49.3333Z" fill="white"/>
</svg>
